# xmcd
#
# Track frame offsets: 
#        150
#        11877
#        23797
#        33972
#        45513
#        57700
#        67561
#        78941
#        89029
#        98733
#        111962
#        123304
#        135179
#        146653
#        157545
#        170113
#        183447
#        194525
#        204402
#        214948
#        227643
#        238223
#        249345
#        260415
#        272450
#
# Disc length: 3761 seconds
#
# Revision: 2
# Processed by: cddbd v1.5.2PL0 Copyright (c) Steve Scherf et al.
# Submitted via: ExactAudioCopy v1.0b1
#
DISCID=560eaf19
DTITLE=Various Artist - Stompers, Floaters And Floorshakers CD1
DYEAR=2011
DGENRE=Northern Soul
TTITLE0=Jamo Thomas - I Spy (For The FBI) (1966)
TTITLE1=Alvin Cash and The Registers - Alvin's Boo-Ga-Loo (1966)
TTITLE2=Jackie Lee - Duck, The (1965)
TTITLE3=Dee Clark - That's My Girl (1964)
TTITLE4=Little Richie - Just Another Heartache (1965)
TTITLE5=Betty Everett - Getting Mighty Crowded (1964)
TTITLE6=Sam Fletcher - I'd Think It Over Twice (If I Were You) (1964)
TTITLE7=Linda Jones  - You Hit Me Like TNT (1965)
TTITLE8=Fascinations - Girls Are Out To Get You (1967)
TTITLE9=Gene Chandler - Nothing Can Stop Me (1965)
TTITLE10=Sharpees - Do The 45 (1965)
TTITLE11=Fred Hughes - I Keep Tryin' (1966)
TTITLE12=Mary Silvers - Power Of Love (1963)
TTITLE13=Maurice Williams and The Zodiacs - Being Without You (1967)
TTITLE14=Liz Lands - One Man's Poison (1966)
TTITLE15=Sidney Barnes - I Hurt On The Other Side (1966)
TTITLE16=Admirations - Wait Til I Get To Know You (1967)
TTITLE17=Inspirations - Your Wish Is My Command (1967)
TTITLE18=Johnny Sayles - Don't Turn Your Back On Me (1963)
TTITLE19=Cicero Blake - Sad Feeling (1964)
TTITLE20=Falcons - I'm A Fool, I Must Love You (1966)
TTITLE21=Wade Flemons - That Other Place (1964)
TTITLE22=Accents - You Better Think Again (1964)
TTITLE23=Ad Libs - Nothing's Worse Than Being Alone (1969)
TTITLE24=Rosco Shelton - You're The Dream (1966)
EXTD=
EXTT0=
EXTT1=
EXTT2=
EXTT3=
EXTT4=
EXTT5=
EXTT6=
EXTT7=
EXTT8=
EXTT9=
EXTT10=
EXTT11=
EXTT12=
EXTT13=
EXTT14=
EXTT15=
EXTT16=
EXTT17=
EXTT18=
EXTT19=
EXTT20=
EXTT21=
EXTT22=
EXTT23=
EXTT24=
PLAYORDER=
